<mxfile host="app.diagrams.net" modified="2021-09-21T15:37:33.001Z" agent="5.0 (Macintosh; Intel Mac OS X 10_15_7) AppleWebKit/605.1.15 (KHTML, like Gecko) Version/14.1.2 Safari/605.1.15" etag="CUVIwhS-w3cz-SAxD5iy" version="15.2.9" type="github">
  <diagram id="KnKrZHBrrZRrQnKBVpzU" name="Page-1">
    <mxGraphModel dx="1346" dy="580" grid="1" gridSize="10" guides="1" tooltips="1" connect="1" arrows="1" fold="1" page="1" pageScale="1" pageWidth="1169" pageHeight="827" math="0" shadow="0">
      <root>
        <mxCell id="0" />
        <mxCell id="1" parent="0" />
        <mxCell id="2u56ysRC2PjjCJJlLcjJ-60" style="edgeStyle=orthogonalEdgeStyle;rounded=0;orthogonalLoop=1;jettySize=auto;html=1;entryX=1;entryY=0.5;entryDx=0;entryDy=0;startArrow=diamond;startFill=0;" edge="1" parent="1" source="2u56ysRC2PjjCJJlLcjJ-5" target="2u56ysRC2PjjCJJlLcjJ-56">
          <mxGeometry relative="1" as="geometry" />
        </mxCell>
        <mxCell id="2u56ysRC2PjjCJJlLcjJ-61" style="edgeStyle=orthogonalEdgeStyle;rounded=0;orthogonalLoop=1;jettySize=auto;html=1;entryX=1;entryY=0.5;entryDx=0;entryDy=0;" edge="1" parent="1" source="2u56ysRC2PjjCJJlLcjJ-5" target="2u56ysRC2PjjCJJlLcjJ-18">
          <mxGeometry relative="1" as="geometry" />
        </mxCell>
        <mxCell id="2u56ysRC2PjjCJJlLcjJ-5" value="Carrinho" style="swimlane;fontStyle=1;align=center;verticalAlign=top;childLayout=stackLayout;horizontal=1;startSize=26;horizontalStack=0;resizeParent=1;resizeParentMax=0;resizeLast=0;collapsible=1;marginBottom=0;" vertex="1" parent="1">
          <mxGeometry x="1000" y="98" width="240" height="190" as="geometry" />
        </mxCell>
        <mxCell id="2u56ysRC2PjjCJJlLcjJ-6" value="- estado: estado" style="text;strokeColor=none;fillColor=none;align=left;verticalAlign=top;spacingLeft=4;spacingRight=4;overflow=hidden;rotatable=0;points=[[0,0.5],[1,0.5]];portConstraint=eastwest;" vertex="1" parent="2u56ysRC2PjjCJJlLcjJ-5">
          <mxGeometry y="26" width="240" height="26" as="geometry" />
        </mxCell>
        <mxCell id="2u56ysRC2PjjCJJlLcjJ-2" value="- listaProdutos: ArrayList" style="text;strokeColor=none;fillColor=none;align=left;verticalAlign=top;spacingLeft=4;spacingRight=4;overflow=hidden;rotatable=0;points=[[0,0.5],[1,0.5]];portConstraint=eastwest;" vertex="1" parent="2u56ysRC2PjjCJJlLcjJ-5">
          <mxGeometry y="52" width="240" height="26" as="geometry" />
        </mxCell>
        <mxCell id="2u56ysRC2PjjCJJlLcjJ-7" value="" style="line;strokeWidth=1;fillColor=none;align=left;verticalAlign=middle;spacingTop=-1;spacingLeft=3;spacingRight=3;rotatable=0;labelPosition=right;points=[];portConstraint=eastwest;" vertex="1" parent="2u56ysRC2PjjCJJlLcjJ-5">
          <mxGeometry y="78" width="240" height="8" as="geometry" />
        </mxCell>
        <mxCell id="2u56ysRC2PjjCJJlLcjJ-8" value="+ adicionarProduto(Produto produto): void" style="text;strokeColor=none;fillColor=none;align=left;verticalAlign=top;spacingLeft=4;spacingRight=4;overflow=hidden;rotatable=0;points=[[0,0.5],[1,0.5]];portConstraint=eastwest;" vertex="1" parent="2u56ysRC2PjjCJJlLcjJ-5">
          <mxGeometry y="86" width="240" height="26" as="geometry" />
        </mxCell>
        <mxCell id="2u56ysRC2PjjCJJlLcjJ-9" value="+ cancelarCarrinho(): void" style="text;strokeColor=none;fillColor=none;align=left;verticalAlign=top;spacingLeft=4;spacingRight=4;overflow=hidden;rotatable=0;points=[[0,0.5],[1,0.5]];portConstraint=eastwest;" vertex="1" parent="2u56ysRC2PjjCJJlLcjJ-5">
          <mxGeometry y="112" width="240" height="26" as="geometry" />
        </mxCell>
        <mxCell id="2u56ysRC2PjjCJJlLcjJ-10" value="+ retornarAoPontoAnterior(): void" style="text;strokeColor=none;fillColor=none;align=left;verticalAlign=top;spacingLeft=4;spacingRight=4;overflow=hidden;rotatable=0;points=[[0,0.5],[1,0.5]];portConstraint=eastwest;" vertex="1" parent="2u56ysRC2PjjCJJlLcjJ-5">
          <mxGeometry y="138" width="240" height="26" as="geometry" />
        </mxCell>
        <mxCell id="2u56ysRC2PjjCJJlLcjJ-11" value="+ irParaProximoEstado(): void" style="text;strokeColor=none;fillColor=none;align=left;verticalAlign=top;spacingLeft=4;spacingRight=4;overflow=hidden;rotatable=0;points=[[0,0.5],[1,0.5]];portConstraint=eastwest;" vertex="1" parent="2u56ysRC2PjjCJJlLcjJ-5">
          <mxGeometry y="164" width="240" height="26" as="geometry" />
        </mxCell>
        <mxCell id="2u56ysRC2PjjCJJlLcjJ-12" value="&lt;&lt;Interface&gt;&gt;&#xa;Estado" style="swimlane;fontStyle=1;align=center;verticalAlign=top;childLayout=stackLayout;horizontal=1;startSize=40;horizontalStack=0;resizeParent=1;resizeParentMax=0;resizeLast=0;collapsible=1;marginBottom=0;" vertex="1" parent="1">
          <mxGeometry x="310" y="80" width="270" height="152" as="geometry" />
        </mxCell>
        <mxCell id="2u56ysRC2PjjCJJlLcjJ-14" value="" style="line;strokeWidth=1;fillColor=none;align=left;verticalAlign=middle;spacingTop=-1;spacingLeft=3;spacingRight=3;rotatable=0;labelPosition=right;points=[];portConstraint=eastwest;" vertex="1" parent="2u56ysRC2PjjCJJlLcjJ-12">
          <mxGeometry y="40" width="270" height="8" as="geometry" />
        </mxCell>
        <mxCell id="2u56ysRC2PjjCJJlLcjJ-16" value="+ adicionarProduto(Produto produto): void" style="text;strokeColor=none;fillColor=none;align=left;verticalAlign=top;spacingLeft=4;spacingRight=4;overflow=hidden;rotatable=0;points=[[0,0.5],[1,0.5]];portConstraint=eastwest;" vertex="1" parent="2u56ysRC2PjjCJJlLcjJ-12">
          <mxGeometry y="48" width="270" height="26" as="geometry" />
        </mxCell>
        <mxCell id="2u56ysRC2PjjCJJlLcjJ-19" value="+ irParaProximoEstado(): void" style="text;strokeColor=none;fillColor=none;align=left;verticalAlign=top;spacingLeft=4;spacingRight=4;overflow=hidden;rotatable=0;points=[[0,0.5],[1,0.5]];portConstraint=eastwest;" vertex="1" parent="2u56ysRC2PjjCJJlLcjJ-12">
          <mxGeometry y="74" width="270" height="26" as="geometry" />
        </mxCell>
        <mxCell id="2u56ysRC2PjjCJJlLcjJ-18" value="+ retornarAoPontoAnterior(): void" style="text;strokeColor=none;fillColor=none;align=left;verticalAlign=top;spacingLeft=4;spacingRight=4;overflow=hidden;rotatable=0;points=[[0,0.5],[1,0.5]];portConstraint=eastwest;" vertex="1" parent="2u56ysRC2PjjCJJlLcjJ-12">
          <mxGeometry y="100" width="270" height="26" as="geometry" />
        </mxCell>
        <mxCell id="2u56ysRC2PjjCJJlLcjJ-17" value="+ cancelarCarrinho(): void" style="text;strokeColor=none;fillColor=none;align=left;verticalAlign=top;spacingLeft=4;spacingRight=4;overflow=hidden;rotatable=0;points=[[0,0.5],[1,0.5]];portConstraint=eastwest;" vertex="1" parent="2u56ysRC2PjjCJJlLcjJ-12">
          <mxGeometry y="126" width="270" height="26" as="geometry" />
        </mxCell>
        <mxCell id="2u56ysRC2PjjCJJlLcjJ-62" style="edgeStyle=orthogonalEdgeStyle;rounded=0;orthogonalLoop=1;jettySize=auto;html=1;entryX=0.378;entryY=1;entryDx=0;entryDy=0;entryPerimeter=0;startArrow=none;startFill=0;dashed=1;endArrow=classic;endFill=0;" edge="1" parent="1" source="2u56ysRC2PjjCJJlLcjJ-20" target="2u56ysRC2PjjCJJlLcjJ-17">
          <mxGeometry relative="1" as="geometry" />
        </mxCell>
        <mxCell id="2u56ysRC2PjjCJJlLcjJ-20" value="Vazio" style="swimlane;fontStyle=1;align=center;verticalAlign=top;childLayout=stackLayout;horizontal=1;startSize=26;horizontalStack=0;resizeParent=1;resizeParentMax=0;resizeLast=0;collapsible=1;marginBottom=0;" vertex="1" parent="1">
          <mxGeometry x="120" y="414" width="240" height="164" as="geometry" />
        </mxCell>
        <mxCell id="2u56ysRC2PjjCJJlLcjJ-21" value="- carrinho: Carrinho" style="text;strokeColor=none;fillColor=none;align=left;verticalAlign=top;spacingLeft=4;spacingRight=4;overflow=hidden;rotatable=0;points=[[0,0.5],[1,0.5]];portConstraint=eastwest;" vertex="1" parent="2u56ysRC2PjjCJJlLcjJ-20">
          <mxGeometry y="26" width="240" height="26" as="geometry" />
        </mxCell>
        <mxCell id="2u56ysRC2PjjCJJlLcjJ-22" value="" style="line;strokeWidth=1;fillColor=none;align=left;verticalAlign=middle;spacingTop=-1;spacingLeft=3;spacingRight=3;rotatable=0;labelPosition=right;points=[];portConstraint=eastwest;" vertex="1" parent="2u56ysRC2PjjCJJlLcjJ-20">
          <mxGeometry y="52" width="240" height="8" as="geometry" />
        </mxCell>
        <mxCell id="2u56ysRC2PjjCJJlLcjJ-39" value="+ adicionarProduto(Produto produto): void" style="text;strokeColor=none;fillColor=none;align=left;verticalAlign=top;spacingLeft=4;spacingRight=4;overflow=hidden;rotatable=0;points=[[0,0.5],[1,0.5]];portConstraint=eastwest;" vertex="1" parent="2u56ysRC2PjjCJJlLcjJ-20">
          <mxGeometry y="60" width="240" height="26" as="geometry" />
        </mxCell>
        <mxCell id="2u56ysRC2PjjCJJlLcjJ-42" value="+ cancelarCarrinho(): void" style="text;strokeColor=none;fillColor=none;align=left;verticalAlign=top;spacingLeft=4;spacingRight=4;overflow=hidden;rotatable=0;points=[[0,0.5],[1,0.5]];portConstraint=eastwest;" vertex="1" parent="2u56ysRC2PjjCJJlLcjJ-20">
          <mxGeometry y="86" width="240" height="26" as="geometry" />
        </mxCell>
        <mxCell id="2u56ysRC2PjjCJJlLcjJ-41" value="+ retornarAoPontoAnterior(): void" style="text;strokeColor=none;fillColor=none;align=left;verticalAlign=top;spacingLeft=4;spacingRight=4;overflow=hidden;rotatable=0;points=[[0,0.5],[1,0.5]];portConstraint=eastwest;" vertex="1" parent="2u56ysRC2PjjCJJlLcjJ-20">
          <mxGeometry y="112" width="240" height="26" as="geometry" />
        </mxCell>
        <mxCell id="2u56ysRC2PjjCJJlLcjJ-40" value="+ irParaProximoEstado(): void" style="text;strokeColor=none;fillColor=none;align=left;verticalAlign=top;spacingLeft=4;spacingRight=4;overflow=hidden;rotatable=0;points=[[0,0.5],[1,0.5]];portConstraint=eastwest;" vertex="1" parent="2u56ysRC2PjjCJJlLcjJ-20">
          <mxGeometry y="138" width="240" height="26" as="geometry" />
        </mxCell>
        <mxCell id="2u56ysRC2PjjCJJlLcjJ-63" style="edgeStyle=orthogonalEdgeStyle;rounded=0;orthogonalLoop=1;jettySize=auto;html=1;entryX=0.289;entryY=1;entryDx=0;entryDy=0;entryPerimeter=0;startArrow=none;startFill=0;dashed=1;endArrow=classic;endFill=0;" edge="1" parent="1" source="2u56ysRC2PjjCJJlLcjJ-24" target="2u56ysRC2PjjCJJlLcjJ-17">
          <mxGeometry relative="1" as="geometry" />
        </mxCell>
        <mxCell id="2u56ysRC2PjjCJJlLcjJ-24" value="Carregando" style="swimlane;fontStyle=1;align=center;verticalAlign=top;childLayout=stackLayout;horizontal=1;startSize=26;horizontalStack=0;resizeParent=1;resizeParentMax=0;resizeLast=0;collapsible=1;marginBottom=0;" vertex="1" parent="1">
          <mxGeometry x="400" y="414" width="240" height="164" as="geometry" />
        </mxCell>
        <mxCell id="2u56ysRC2PjjCJJlLcjJ-36" value="- carrinho: Carrinho" style="text;strokeColor=none;fillColor=none;align=left;verticalAlign=top;spacingLeft=4;spacingRight=4;overflow=hidden;rotatable=0;points=[[0,0.5],[1,0.5]];portConstraint=eastwest;" vertex="1" parent="2u56ysRC2PjjCJJlLcjJ-24">
          <mxGeometry y="26" width="240" height="26" as="geometry" />
        </mxCell>
        <mxCell id="2u56ysRC2PjjCJJlLcjJ-26" value="" style="line;strokeWidth=1;fillColor=none;align=left;verticalAlign=middle;spacingTop=-1;spacingLeft=3;spacingRight=3;rotatable=0;labelPosition=right;points=[];portConstraint=eastwest;" vertex="1" parent="2u56ysRC2PjjCJJlLcjJ-24">
          <mxGeometry y="52" width="240" height="8" as="geometry" />
        </mxCell>
        <mxCell id="2u56ysRC2PjjCJJlLcjJ-43" value="+ adicionarProduto(Produto produto): void" style="text;strokeColor=none;fillColor=none;align=left;verticalAlign=top;spacingLeft=4;spacingRight=4;overflow=hidden;rotatable=0;points=[[0,0.5],[1,0.5]];portConstraint=eastwest;" vertex="1" parent="2u56ysRC2PjjCJJlLcjJ-24">
          <mxGeometry y="60" width="240" height="26" as="geometry" />
        </mxCell>
        <mxCell id="2u56ysRC2PjjCJJlLcjJ-46" value="+ cancelarCarrinho(): void" style="text;strokeColor=none;fillColor=none;align=left;verticalAlign=top;spacingLeft=4;spacingRight=4;overflow=hidden;rotatable=0;points=[[0,0.5],[1,0.5]];portConstraint=eastwest;" vertex="1" parent="2u56ysRC2PjjCJJlLcjJ-24">
          <mxGeometry y="86" width="240" height="26" as="geometry" />
        </mxCell>
        <mxCell id="2u56ysRC2PjjCJJlLcjJ-45" value="+ retornarAoPontoAnterior(): void" style="text;strokeColor=none;fillColor=none;align=left;verticalAlign=top;spacingLeft=4;spacingRight=4;overflow=hidden;rotatable=0;points=[[0,0.5],[1,0.5]];portConstraint=eastwest;" vertex="1" parent="2u56ysRC2PjjCJJlLcjJ-24">
          <mxGeometry y="112" width="240" height="26" as="geometry" />
        </mxCell>
        <mxCell id="2u56ysRC2PjjCJJlLcjJ-44" value="+ irParaProximoEstado(): void" style="text;strokeColor=none;fillColor=none;align=left;verticalAlign=top;spacingLeft=4;spacingRight=4;overflow=hidden;rotatable=0;points=[[0,0.5],[1,0.5]];portConstraint=eastwest;" vertex="1" parent="2u56ysRC2PjjCJJlLcjJ-24">
          <mxGeometry y="138" width="240" height="26" as="geometry" />
        </mxCell>
        <mxCell id="2u56ysRC2PjjCJJlLcjJ-64" style="edgeStyle=orthogonalEdgeStyle;rounded=0;orthogonalLoop=1;jettySize=auto;html=1;entryX=0.433;entryY=1.038;entryDx=0;entryDy=0;entryPerimeter=0;startArrow=none;startFill=0;dashed=1;endArrow=classic;endFill=0;" edge="1" parent="1" source="2u56ysRC2PjjCJJlLcjJ-28" target="2u56ysRC2PjjCJJlLcjJ-17">
          <mxGeometry relative="1" as="geometry" />
        </mxCell>
        <mxCell id="2u56ysRC2PjjCJJlLcjJ-28" value="Pagando" style="swimlane;fontStyle=1;align=center;verticalAlign=top;childLayout=stackLayout;horizontal=1;startSize=26;horizontalStack=0;resizeParent=1;resizeParentMax=0;resizeLast=0;collapsible=1;marginBottom=0;" vertex="1" parent="1">
          <mxGeometry x="680" y="414" width="245" height="164" as="geometry" />
        </mxCell>
        <mxCell id="2u56ysRC2PjjCJJlLcjJ-37" value="- carrinho: Carrinho" style="text;strokeColor=none;fillColor=none;align=left;verticalAlign=top;spacingLeft=4;spacingRight=4;overflow=hidden;rotatable=0;points=[[0,0.5],[1,0.5]];portConstraint=eastwest;" vertex="1" parent="2u56ysRC2PjjCJJlLcjJ-28">
          <mxGeometry y="26" width="245" height="26" as="geometry" />
        </mxCell>
        <mxCell id="2u56ysRC2PjjCJJlLcjJ-30" value="" style="line;strokeWidth=1;fillColor=none;align=left;verticalAlign=middle;spacingTop=-1;spacingLeft=3;spacingRight=3;rotatable=0;labelPosition=right;points=[];portConstraint=eastwest;" vertex="1" parent="2u56ysRC2PjjCJJlLcjJ-28">
          <mxGeometry y="52" width="245" height="8" as="geometry" />
        </mxCell>
        <mxCell id="2u56ysRC2PjjCJJlLcjJ-47" value="+ adicionarProduto(Produto produto): void" style="text;strokeColor=none;fillColor=none;align=left;verticalAlign=top;spacingLeft=4;spacingRight=4;overflow=hidden;rotatable=0;points=[[0,0.5],[1,0.5]];portConstraint=eastwest;" vertex="1" parent="2u56ysRC2PjjCJJlLcjJ-28">
          <mxGeometry y="60" width="245" height="26" as="geometry" />
        </mxCell>
        <mxCell id="2u56ysRC2PjjCJJlLcjJ-50" value="+ cancelarCarrinho(): void" style="text;strokeColor=none;fillColor=none;align=left;verticalAlign=top;spacingLeft=4;spacingRight=4;overflow=hidden;rotatable=0;points=[[0,0.5],[1,0.5]];portConstraint=eastwest;" vertex="1" parent="2u56ysRC2PjjCJJlLcjJ-28">
          <mxGeometry y="86" width="245" height="26" as="geometry" />
        </mxCell>
        <mxCell id="2u56ysRC2PjjCJJlLcjJ-49" value="+ retornarAoPontoAnterior(): void" style="text;strokeColor=none;fillColor=none;align=left;verticalAlign=top;spacingLeft=4;spacingRight=4;overflow=hidden;rotatable=0;points=[[0,0.5],[1,0.5]];portConstraint=eastwest;" vertex="1" parent="2u56ysRC2PjjCJJlLcjJ-28">
          <mxGeometry y="112" width="245" height="26" as="geometry" />
        </mxCell>
        <mxCell id="2u56ysRC2PjjCJJlLcjJ-48" value="+ irParaProximoEstado(): void" style="text;strokeColor=none;fillColor=none;align=left;verticalAlign=top;spacingLeft=4;spacingRight=4;overflow=hidden;rotatable=0;points=[[0,0.5],[1,0.5]];portConstraint=eastwest;" vertex="1" parent="2u56ysRC2PjjCJJlLcjJ-28">
          <mxGeometry y="138" width="245" height="26" as="geometry" />
        </mxCell>
        <mxCell id="2u56ysRC2PjjCJJlLcjJ-65" style="edgeStyle=orthogonalEdgeStyle;rounded=0;orthogonalLoop=1;jettySize=auto;html=1;entryX=0.563;entryY=0.962;entryDx=0;entryDy=0;entryPerimeter=0;startArrow=none;startFill=0;dashed=1;endArrow=classic;endFill=0;" edge="1" parent="1" source="2u56ysRC2PjjCJJlLcjJ-32" target="2u56ysRC2PjjCJJlLcjJ-17">
          <mxGeometry relative="1" as="geometry" />
        </mxCell>
        <mxCell id="2u56ysRC2PjjCJJlLcjJ-32" value="Fechado" style="swimlane;fontStyle=1;align=center;verticalAlign=top;childLayout=stackLayout;horizontal=1;startSize=26;horizontalStack=0;resizeParent=1;resizeParentMax=0;resizeLast=0;collapsible=1;marginBottom=0;" vertex="1" parent="1">
          <mxGeometry x="970" y="414" width="240" height="164" as="geometry" />
        </mxCell>
        <mxCell id="2u56ysRC2PjjCJJlLcjJ-38" value="- carrinho: Carrinho" style="text;strokeColor=none;fillColor=none;align=left;verticalAlign=top;spacingLeft=4;spacingRight=4;overflow=hidden;rotatable=0;points=[[0,0.5],[1,0.5]];portConstraint=eastwest;" vertex="1" parent="2u56ysRC2PjjCJJlLcjJ-32">
          <mxGeometry y="26" width="240" height="26" as="geometry" />
        </mxCell>
        <mxCell id="2u56ysRC2PjjCJJlLcjJ-34" value="" style="line;strokeWidth=1;fillColor=none;align=left;verticalAlign=middle;spacingTop=-1;spacingLeft=3;spacingRight=3;rotatable=0;labelPosition=right;points=[];portConstraint=eastwest;" vertex="1" parent="2u56ysRC2PjjCJJlLcjJ-32">
          <mxGeometry y="52" width="240" height="8" as="geometry" />
        </mxCell>
        <mxCell id="2u56ysRC2PjjCJJlLcjJ-51" value="+ adicionarProduto(Produto produto): void" style="text;strokeColor=none;fillColor=none;align=left;verticalAlign=top;spacingLeft=4;spacingRight=4;overflow=hidden;rotatable=0;points=[[0,0.5],[1,0.5]];portConstraint=eastwest;" vertex="1" parent="2u56ysRC2PjjCJJlLcjJ-32">
          <mxGeometry y="60" width="240" height="26" as="geometry" />
        </mxCell>
        <mxCell id="2u56ysRC2PjjCJJlLcjJ-54" value="+ cancelarCarrinho(): void" style="text;strokeColor=none;fillColor=none;align=left;verticalAlign=top;spacingLeft=4;spacingRight=4;overflow=hidden;rotatable=0;points=[[0,0.5],[1,0.5]];portConstraint=eastwest;" vertex="1" parent="2u56ysRC2PjjCJJlLcjJ-32">
          <mxGeometry y="86" width="240" height="26" as="geometry" />
        </mxCell>
        <mxCell id="2u56ysRC2PjjCJJlLcjJ-53" value="+ retornarAoPontoAnterior(): void" style="text;strokeColor=none;fillColor=none;align=left;verticalAlign=top;spacingLeft=4;spacingRight=4;overflow=hidden;rotatable=0;points=[[0,0.5],[1,0.5]];portConstraint=eastwest;" vertex="1" parent="2u56ysRC2PjjCJJlLcjJ-32">
          <mxGeometry y="112" width="240" height="26" as="geometry" />
        </mxCell>
        <mxCell id="2u56ysRC2PjjCJJlLcjJ-52" value="+ irParaProximoEstado(): void" style="text;strokeColor=none;fillColor=none;align=left;verticalAlign=top;spacingLeft=4;spacingRight=4;overflow=hidden;rotatable=0;points=[[0,0.5],[1,0.5]];portConstraint=eastwest;" vertex="1" parent="2u56ysRC2PjjCJJlLcjJ-32">
          <mxGeometry y="138" width="240" height="26" as="geometry" />
        </mxCell>
        <mxCell id="2u56ysRC2PjjCJJlLcjJ-55" value="Produto" style="swimlane;fontStyle=1;align=center;verticalAlign=top;childLayout=stackLayout;horizontal=1;startSize=26;horizontalStack=0;resizeParent=1;resizeParentMax=0;resizeLast=0;collapsible=1;marginBottom=0;" vertex="1" parent="1">
          <mxGeometry x="660" y="12" width="160" height="86" as="geometry" />
        </mxCell>
        <mxCell id="2u56ysRC2PjjCJJlLcjJ-56" value="- descrição: String" style="text;strokeColor=none;fillColor=none;align=left;verticalAlign=top;spacingLeft=4;spacingRight=4;overflow=hidden;rotatable=0;points=[[0,0.5],[1,0.5]];portConstraint=eastwest;" vertex="1" parent="2u56ysRC2PjjCJJlLcjJ-55">
          <mxGeometry y="26" width="160" height="26" as="geometry" />
        </mxCell>
        <mxCell id="2u56ysRC2PjjCJJlLcjJ-59" value="- preco: Double" style="text;strokeColor=none;fillColor=none;align=left;verticalAlign=top;spacingLeft=4;spacingRight=4;overflow=hidden;rotatable=0;points=[[0,0.5],[1,0.5]];portConstraint=eastwest;" vertex="1" parent="2u56ysRC2PjjCJJlLcjJ-55">
          <mxGeometry y="52" width="160" height="26" as="geometry" />
        </mxCell>
        <mxCell id="2u56ysRC2PjjCJJlLcjJ-57" value="" style="line;strokeWidth=1;fillColor=none;align=left;verticalAlign=middle;spacingTop=-1;spacingLeft=3;spacingRight=3;rotatable=0;labelPosition=right;points=[];portConstraint=eastwest;" vertex="1" parent="2u56ysRC2PjjCJJlLcjJ-55">
          <mxGeometry y="78" width="160" height="8" as="geometry" />
        </mxCell>
      </root>
    </mxGraphModel>
  </diagram>
</mxfile>
